HIERARCHY
ROOT Hips
{
	OFFSET 0.000000 0.000000 0.000000
	CHANNELS 6 Xposition Yposition Zposition Zrotation Yrotation Xrotation 
	JOINT LHipJoint
	{
		OFFSET 0.000000 0.000000 0.000000
		CHANNELS 3 Zrotation Yrotation Xrotation
		JOINT LeftUpLeg
		{
			OFFSET 1.363060 -1.794630 0.839290
			CHANNELS 3 Zrotation Yrotation Xrotation
			JOINT LeftLeg
			{
				OFFSET 2.448110 -6.726130 0.000000
				CHANNELS 3 Zrotation Yrotation Xrotation
				JOINT LeftFoot
				{
					OFFSET 2.562200 -7.039590 0.000000
					CHANNELS 3 Zrotation Yrotation Xrotation
					JOINT LeftToeBase
					{
						OFFSET 0.157640 -0.433110 2.322550
						CHANNELS 3 Zrotation Yrotation Xrotation
						End Site
						{
							OFFSET 0.000000 0.000000 0.000000
						}
					}
				}
			}
		}
	}
	JOINT RHipJoint
	{
		OFFSET 0.000000 0.000000 0.000000
		CHANNELS 3 Zrotation Yrotation Xrotation
		JOINT RightUpLeg
		{
			OFFSET -1.305520 -1.794630 0.839290
			CHANNELS 3 Zrotation Yrotation Xrotation
			JOINT RightLeg
			{
				OFFSET -2.542530 -6.985550 0.000000
				CHANNELS 3 Zrotation Yrotation Xrotation
				JOINT RightFoot
				{
					OFFSET -2.568260 -7.056230 0.000000
					CHANNELS 3 Zrotation Yrotation Xrotation
					JOINT RightToeBase
					{
						OFFSET -0.164730 -0.452590 2.363150
						CHANNELS 3 Zrotation Yrotation Xrotation
						End Site
						{
							OFFSET 0.000000 0.000000 0.000000
						}
					}
				}
			}
		}
	}
	JOINT LowerBack
	{
		OFFSET 0.000000 0.000000 0.000000
		CHANNELS 3 Zrotation Yrotation Xrotation
		JOINT Spine
		{
			OFFSET 0.028270 2.035590 -0.193380
			CHANNELS 3 Zrotation Yrotation Xrotation
			JOINT Spine1
			{
				OFFSET 0.056720 2.048850 -0.042750
				CHANNELS 3 Zrotation Yrotation Xrotation
				JOINT Neck
				{
					OFFSET 0.000000 0.000000 0.000000
					CHANNELS 3 Zrotation Yrotation Xrotation
					JOINT Neck1
					{
						OFFSET -0.054170 1.746240 0.172020
						CHANNELS 3 Zrotation Yrotation Xrotation
						JOINT Head
						{
							OFFSET 0.104070 1.761360 -0.123970
							CHANNELS 3 Zrotation Yrotation Xrotation
							End Site
							{
								OFFSET 0.000000 0.000000 0.000000
							}
						}
					}
				}
				JOINT LeftShoulder
				{
					OFFSET 0.000000 0.000000 0.000000
					CHANNELS 3 Zrotation Yrotation Xrotation
					JOINT LeftArm
					{
						OFFSET 3.362410 1.200890 -0.311210
						CHANNELS 3 Zrotation Yrotation Xrotation
						JOINT LeftForeArm
						{
							OFFSET 4.983000 -0.000000 -0.000000
							CHANNELS 3 Zrotation Yrotation Xrotation
							JOINT LeftHand
							{
								OFFSET 3.483560 -0.000000 -0.000000
								CHANNELS 3 Zrotation Yrotation Xrotation
								JOINT LeftFingerBase
								{
									OFFSET 0.000000 0.000000 0.000000
									CHANNELS 3 Zrotation Yrotation Xrotation
									JOINT LeftHandIndex1
									{
										OFFSET 0.715260 -0.000000 -0.000000
										CHANNELS 3 Zrotation Yrotation Xrotation
										End Site
										{
											OFFSET 0.000000 0.000000 0.000000
										}
									}
								}
								JOINT LThumb
								{
									OFFSET 0.000000 0.000000 0.000000
									CHANNELS 3 Zrotation Yrotation Xrotation
									End Site
									{
										OFFSET 0.000000 0.000000 0.000000
									}
								}
							}
						}
					}
				}
				JOINT RightShoulder
				{
					OFFSET 0.000000 0.000000 0.000000
					CHANNELS 3 Zrotation Yrotation Xrotation
					JOINT RightArm
					{
						OFFSET -3.136600 1.374050 -0.404650
						CHANNELS 3 Zrotation Yrotation Xrotation
						JOINT RightForeArm
						{
							OFFSET -5.241900 -0.000000 -0.000000
							CHANNELS 3 Zrotation Yrotation Xrotation
							JOINT RightHand
							{
								OFFSET -3.444170 -0.000000 -0.000000
								CHANNELS 3 Zrotation Yrotation Xrotation
								JOINT RightFingerBase
								{
									OFFSET 0.000000 0.000000 0.000000
									CHANNELS 3 Zrotation Yrotation Xrotation
									JOINT RightHandIndex1
									{
										OFFSET -0.622530 -0.000000 -0.000000
										CHANNELS 3 Zrotation Yrotation Xrotation
										End Site
										{
											OFFSET 0.000000 0.000000 0.000000
										}
									}
								}
								JOINT RThumb
								{
									OFFSET 0.000000 0.000000 0.000000
									CHANNELS 3 Zrotation Yrotation Xrotation
									End Site
									{
										OFFSET 0.000000 0.000000 0.000000
									}
								}
							}
						}
					}
				}
			}
		}
	}
}
MOTION
Frames: 5
Frame Time: 0.008333
-19.695587 16.180976 -0.519070 11.683095 83.756051 27.354746 -9.412145 -0.264197 3.490901 -12.207249 -5.336436 -51.075749 -1.173477 2.060229 47.455627 2.091731 7.755037 -16.228219 -1.183100 -0.000000 -8.595300 10.579424 -5.152508 0.231859 2.045175 -6.604475 3.235113 0.793236 -2.467876 30.006682 0.569649 13.040455 15.325645 4.738600 -0.000001 -84.717800 -9.689265 1.409801 -5.074435 -2.904691 1.985055 -4.400821 -6.253453 1.827695 -0.951952 9.003341 -2.141328 -8.738336 -3.115263 -0.227304 -0.410653 0.000000 0.000000 0.000000 -7.080908 15.527611 3.389454 -49.523898 20.186863 27.676180 -4.679793 -22.237146 -0.033693 -6.128378 9.035517 -0.479011 -0.144691 -0.098179 -0.000000 0.000000 0.000000 0.000000 0.000000 0.000000 0.000000 11.894038 6.544102 1.098936 59.513925 33.749606 31.235895 0.835614 73.092934 -0.009652 -2.867202 7.668577 -0.208276 0.079735 -0.474521 -0.000000 0.000000 0.000000 0.000000 0.000000 0.000000 0.000000 
-19.516021 16.182965 -0.524232 14.860233 84.025375 30.320784 -9.315221 -0.225217 3.357691 -12.826191 -5.331843 -50.041277 -1.209808 2.006989 47.705089 2.111170 7.738355 -16.913618 -1.321799 -0.000001 -8.424900 10.923248 -5.145344 0.118398 1.344550 -7.314977 1.405095 0.473995 -2.711528 33.876479 0.332027 12.885570 17.805761 5.308800 -0.000000 -83.544500 -9.904495 1.280435 -4.816449 -2.959521 1.877457 -4.386114 -6.385722 1.718135 -1.112868 9.164124 -1.955070 -8.639220 -3.263710 -0.239599 -0.396335 0.000000 0.000000 0.000000 -7.346007 14.801601 3.456179 -50.113801 18.152105 26.276268 -4.755110 -20.242556 -0.030058 -5.239597 8.812792 -0.396853 -0.145550 -0.080403 -0.000000 0.000000 0.000000 0.000000 0.000000 0.000000 0.000000 12.565605 6.683286 1.071695 60.807427 31.607735 30.900005 0.897656 71.370676 -0.010054 -2.993157 7.739675 -0.218874 0.079850 -0.464639 -0.000000 0.000000 0.000000 0.000000 0.000000 0.000000 0.000000 
-19.339848 16.185853 -0.529361 18.308298 84.305732 33.557262 -9.184117 -0.166199 3.224180 -13.468503 -5.309791 -48.955088 -1.255448 1.945564 47.862237 2.128209 7.684896 -17.604672 -1.458400 0.000001 -8.471800 11.291853 -5.087482 -0.004487 0.684086 -8.048335 -0.507202 0.180317 -2.926333 37.799126 0.068030 12.286195 20.042103 5.625000 0.000000 -81.402700 -10.080626 1.147370 -4.539497 -3.004392 1.762319 -4.360937 -6.506937 1.600819 -1.253486 9.301365 -1.791027 -8.535017 -3.406009 -0.251249 -0.380819 0.000000 0.000000 0.000000 -7.558808 14.075881 3.513124 -50.787314 15.898334 24.767660 -4.811693 -18.101631 -0.025923 -4.122934 8.490161 -0.297992 -0.143382 -0.061495 -0.000000 0.000000 0.000000 0.000000 0.000000 0.000000 0.000000 13.205713 6.751425 1.034467 62.142153 29.499807 30.384226 0.961911 69.355280 -0.010462 -3.110122 7.866849 -0.230396 0.078248 -0.453274 -0.000000 0.000000 0.000000 0.000000 0.000000 0.000000 0.000000 
-19.166273 16.190272 -0.534731 21.889813 84.578751 36.927972 -9.025514 -0.080658 3.096435 -14.110491 -5.261598 -47.830893 -1.309128 1.881093 47.928724 2.143972 7.603206 -18.290031 -1.590200 -0.000000 -8.713800 11.668436 -4.978671 -0.133783 0.092650 -8.767761 -2.473770 -0.085096 -3.120248 41.726631 -0.209559 11.163867 21.896151 5.578399 -0.000000 -78.546000 -10.205279 1.019697 -4.257257 -3.038053 1.647365 -4.332384 -6.621313 1.482485 -1.389157 9.416706 -1.652259 -8.409662 -3.540704 -0.262417 -0.358713 0.000000 0.000000 0.000000 -7.747799 13.262325 3.554032 -51.516686 13.587860 23.015274 -4.845087 -15.926409 -0.021581 -2.763699 8.057810 -0.186232 -0.137633 -0.042444 -0.000000 0.000000 0.000000 0.000000 0.000000 0.000000 0.000000 13.812833 6.744488 1.001634 63.521491 27.430822 29.666528 1.028478 67.024643 -0.010909 -3.236574 8.052483 -0.244535 0.075649 -0.440349 -0.000000 0.000000 0.000000 0.000000 0.000000 0.000000 0.000000 
-18.994731 16.196889 -0.540472 25.520368 84.830398 40.351704 -8.847362 0.033555 2.979087 -14.736286 -5.185066 -46.680677 -1.370184 1.817417 47.902325 2.158986 7.500763 -18.956870 -1.714500 0.000000 -9.117200 12.038946 -4.822433 -0.266604 -0.414568 -9.445676 -4.480448 -0.326524 -3.302413 45.621495 -0.491066 9.494149 23.246918 5.110899 -0.000000 -75.289400 -10.277815 0.900714 -3.981283 -3.060975 1.535912 -4.301935 -6.729781 1.366209 -1.515208 9.514085 -1.542573 -8.267239 -3.665080 -0.272835 -0.330735 0.000000 0.000000 0.000000 -7.917859 12.374411 3.576636 -52.278507 11.235851 21.037821 -4.848032 -13.782987 -0.017330 -1.168108 7.490078 -0.068476 -0.128050 -0.024070 -0.000000 0.000000 0.000000 0.000000 0.000000 0.000000 0.000000 14.380199 6.658949 0.975945 64.951753 25.420837 28.718064 1.096081 64.367109 -0.011468 -3.395521 8.295694 -0.263089 0.072641 -0.425749 -0.000000 0.000000 0.000000 0.000000 0.000000 0.000000 0.000000 
